<svg width="26" height="18" viewBox="0 0 26 18" xmlns="http://www.w3.org/2000/svg"><title>00259743-60B7-4D05-B697-F2057A7F707D</title><g fill="none" fill-rule="evenodd"><path d="M-1-5h28v28H-1z"/><path d="M17.667 7.833a3.485 3.485 0 0 0 3.488-3.5c0-1.936-1.552-3.5-3.488-3.5a3.495 3.495 0 0 0-3.5 3.5c0 1.937 1.563 3.5 3.5 3.5zm-9.334 0a3.485 3.485 0 0 0 3.489-3.5c0-1.936-1.552-3.5-3.489-3.5a3.495 3.495 0 0 0-3.5 3.5c0 1.937 1.564 3.5 3.5 3.5zm0 2.334c-2.718 0-8.166 1.365-8.166 4.083v2.917H16.5V14.25c0-2.718-5.448-4.083-8.167-4.083zm9.334 0c-.339 0-.724.023-1.132.058 1.353.98 2.298 2.298 2.298 4.025v2.917h7V14.25c0-2.718-5.448-4.083-8.166-4.083z" fill="#FFF"/></g></svg>