<svg width="23" height="17" viewBox="0 0 23 17" xmlns="http://www.w3.org/2000/svg"><title>007F4AB1-70DA-4930-A10E-F8809960E9E0</title><g fill="none" fill-rule="evenodd"><path d="M-1-4h25v25H-1z"/><path d="M14.625 8.5a4.166 4.166 0 0 0 4.167-4.167A4.166 4.166 0 0 0 14.625.167a4.166 4.166 0 0 0-4.167 4.166A4.166 4.166 0 0 0 14.625 8.5zM5.25 6.417V3.292H3.167v3.125H.042V8.5h3.125v3.125H5.25V8.5h3.125V6.417H5.25zm9.375 4.166c-2.781 0-8.333 1.396-8.333 4.167v2.083h16.666V14.75c0-2.77-5.552-4.167-8.333-4.167z" fill="#2988FF"/></g></svg>